<?xml version="1.0" encoding="UTF-8"?><svg xmlns="http://www.w3.org/2000/svg" xmlns:xlink="http://www.w3.org/1999/xlink" height="341.7" preserveAspectRatio="xMidYMid meet" version="1.0" viewBox="0.1 0.0 499.8 341.7" width="499.8" zoomAndPan="magnify"><g id="change1_1"><path d="M487.5,119h-4.8c-2.1,0-4,0.9-5.4,2.6c-0.6,0.8-1,1.6-1.2,2.6h-45.7V88.6c0-10.5-8.5-19-19-19h-28.7V24 c0.9-0.2,1.8-0.6,2.5-1.2c1.6-1.3,2.6-3.3,2.6-5.4v-4.8c0-3.3-2.3-6.1-5.5-6.8c-11.8-2.4-28-5.7-46.3-5.7c-18.5,0-34.6,3.3-46.4,5.8 c-3.3,0.7-5.5,3.5-5.5,6.8v4.8c0,2.1,0.9,4,2.6,5.4c0.8,0.6,1.6,1,2.5,1.2v45.7H211V24c0.9-0.2,1.8-0.6,2.5-1.2 c1.6-1.3,2.6-3.3,2.6-5.4v-4.8c0-3.3-2.3-6.1-5.5-6.8C198.8,3.3,182.6,0,164.2,0c-18.5,0-34.6,3.3-46.4,5.8 c-3.3,0.7-5.5,3.5-5.5,6.8v4.8c0,2.1,0.9,4,2.6,5.4c0.8,0.6,1.6,1,2.5,1.2v45.7H88.6c-5.1,0-9.8,2-13.4,5.6 c-3.6,3.6-5.6,8.4-5.6,13.4v35.5H24c-0.2-0.9-0.6-1.8-1.2-2.5c-1.3-1.6-3.3-2.6-5.4-2.6h-4.8c-3.3,0-6.1,2.3-6.8,5.5 c-2.4,11.8-5.7,28-5.7,46.3s3.3,34.6,5.8,46.4c0.7,3.3,3.5,5.5,6.8,5.5h4.8c2.1,0,4-0.9,5.4-2.6c0.6-0.8,1-1.6,1.2-2.5h45.7v35.4 c0,10.5,8.5,19,19,19h28.8v45.7c-0.9,0.3-1.8,0.6-2.5,1.2c-1.6,1.3-2.6,3.3-2.6,5.4v4.8c0,3.3,2.3,6.1,5.5,6.8 c11.8,2.4,27.9,5.7,46.3,5.7c18.5,0,34.6-3.3,46.4-5.8c3.3-0.7,5.5-3.5,5.5-6.8v-4.8c0-2.1-0.9-4-2.6-5.4c-0.8-0.6-1.6-1-2.5-1.2 v-45.7H289v45.7c-0.9,0.2-1.8,0.6-2.5,1.2c-1.6,1.3-2.6,3.3-2.6,5.4v4.8c0,3.3,2.3,6.1,5.5,6.8c11.8,2.4,28,5.7,46.3,5.7 c18.5,0,34.6-3.3,46.4-5.8c3.3-0.7,5.5-3.5,5.5-6.8v-4.8c0-2.1-0.9-4-2.6-5.4c-0.7-0.6-1.6-1-2.5-1.2v-45.7h28.7 c10.5,0,19-8.5,19-19v-35.4H476c0.2,0.9,0.6,1.8,1.2,2.5c1.3,1.6,3.3,2.6,5.4,2.6h4.8c3.3,0,6.1-2.3,6.8-5.5 c2.4-11.8,5.7-27.9,5.7-46.3c0-18.5-3.3-34.6-5.8-46.4C493.6,121.3,490.8,119,487.5,119L487.5,119z"/></g><g id="change2_1"><path d="M19.6,215.5L19.6,215.5c0.1,0.7,0,1.4-0.4,1.9c-0.4,0.5-1.1,0.9-1.8,0.9v0h-4.8c-1.1,0-2.1-0.8-2.3-1.9 c-2.4-11.6-5.7-27.5-5.7-45.5s3.3-33.8,5.7-45.4c0.2-1.1,1.2-1.9,2.3-1.9h4.9c0.7,0,1.4,0.3,1.8,0.9c0.4,0.5,0.6,1.2,0.4,1.9l0,0.3 c-0.6,2.7-1.1,5.5-1.5,8.2c-0.1,0.8-0.3,1.7-0.5,2.5c-0.5,3.3-0.9,6.5-1.3,9.8c0,0.4-0.1,0.8-0.2,1.1c-0.4,3.5-0.7,7-0.8,10.5 c0,0.2,0,0.4,0,0.5c-0.2,3.7-0.3,7.4-0.3,11.1c0,2.1,0.1,4.2,0.2,6.2c0,1.7,0,3.4,0.1,5.1c0.2,3.6,0.5,7.3,0.8,10.9l0,0.3 c0.8,7.4,1.9,14.8,3.5,22.1L19.6,215.5L19.6,215.5z" fill="#FFF"/></g><g id="change2_2"><path d="M69.6,213.1H23.9c-0.4-1.8-0.7-3.5-1-5.3c-0.3-1.6-0.6-3.2-0.9-4.8c-0.3-2.1-0.6-4.2-0.8-6.3 c-0.2-1.5-0.4-3-0.6-4.5c-0.2-2.4-0.4-4.8-0.6-7.1c-0.1-1.2-0.2-2.5-0.3-3.7c-0.2-3.5-0.3-7.1-0.3-10.6v-0.3c0-3.6,0.1-7.1,0.3-10.7 c0.1-1.2,0.2-2.5,0.3-3.7c0.2-2.3,0.3-4.7,0.6-7c0.2-1.5,0.4-2.9,0.6-4.4c0.3-2.1,0.5-4.2,0.8-6.2c0.2-1.6,0.6-3.2,0.9-4.7 c0.3-1.7,0.6-3.4,1-5.1h45.7L69.6,213.1L69.6,213.1z" fill="#FFF"/></g><g id="change2_3"><path d="M288.5,17.4v-4.8h0c0-1.1,0.8-2,1.9-2.3c11.6-2.4,27.4-5.7,45.5-5.7c17.9,0,33.8,3.3,45.4,5.7 c1.1,0.2,1.9,1.2,1.9,2.3v4.8c0,0.7-0.3,1.4-0.9,1.8c-0.5,0.4-1,0.5-1.6,0.5l-0.6,0c-2.8-0.6-5.6-1.1-8.4-1.6 c-0.8-0.1-1.6-0.3-2.3-0.4c-2.9-0.5-5.9-0.8-8.8-1.2c-0.7-0.1-1.4-0.2-2.2-0.3c-3.2-0.3-6.4-0.6-9.5-0.8c-0.5,0-1-0.1-1.5-0.1 c-3.7-0.2-7.4-0.3-11.1-0.3h-0.4c-2.2,0-4.4,0.1-6.7,0.2c-1.5,0-3,0-4.5,0.1c-1.9,0.1-3.8,0.3-5.7,0.4c-1.8,0.1-3.6,0.2-5.4,0.4 c-7.4,0.8-14.7,1.9-21.9,3.5l-0.4,0h-0.1c-0.6,0.1-1.3,0-1.8-0.4C288.9,18.7,288.5,18.1,288.5,17.4L288.5,17.4z" fill="#FFF"/></g><g id="change2_4"><path d="M378.1,23.9v45.7h-84.5V23.9l0,0c2-0.4,4-0.8,6-1.1c1.3-0.2,2.5-0.5,3.8-0.7c10.1-1.6,20.3-2.4,30.6-2.5 c0.7,0,1.5-0.1,2.2,0c3.6,0,7.1,0.1,10.7,0.3c1.2,0.1,2.4,0.2,3.6,0.3c2.4,0.2,4.7,0.3,7.1,0.6c1.4,0.1,2.7,0.4,4.1,0.5 c2.2,0.3,4.4,0.5,6.6,0.9c1.3,0.2,2.6,0.5,4,0.7C374.2,23.2,376.1,23.5,378.1,23.9L378.1,23.9z" fill="#FFF"/></g><g id="change2_5"><path d="M116.8,17.4v-4.8h0c0-1.1,0.8-2.1,1.9-2.3c11.6-2.4,27.4-5.7,45.5-5.7c17.9,0,33.8,3.3,45.4,5.7 c1.1,0.2,1.9,1.2,1.9,2.3v4.8c0,0.7-0.3,1.4-0.9,1.8c-0.5,0.4-1.2,0.6-1.9,0.5l-0.3,0c-2-0.4-4.1-0.8-6.1-1.1 c-1.6-0.3-3.1-0.6-4.7-0.9c-2.6-0.4-5.3-0.7-7.9-1.1c-1-0.1-2-0.3-3.1-0.4c-2.9-0.3-5.9-0.5-8.8-0.7c-0.7,0-1.5-0.1-2.2-0.2 c-3.7-0.2-7.4-0.3-11.1-0.3h-0.4c-7.5,0-15,0.4-22.4,1.2c-7.4,0.8-14.7,1.9-21.9,3.5l-0.4,0h-0.1c-0.7,0.1-1.3,0-1.8-0.4 C117.1,18.7,116.8,18.1,116.8,17.4L116.8,17.4z" fill="#FFF"/></g><g id="change2_6"><path d="M206.4,23.9v45.7h-84.5V23.9h0c3.2-0.6,6.3-1.2,9.5-1.7h0.1c10.9-1.7,21.9-2.5,33-2.6 c3.6,0,7.1,0.1,10.7,0.3c1.3,0.1,2.5,0.2,3.8,0.3c2.3,0.2,4.6,0.3,6.9,0.5c1.5,0.2,2.9,0.4,4.4,0.6c2.1,0.3,4.2,0.5,6.3,0.8 c1.5,0.2,3,0.5,4.5,0.8C202.8,23.2,204.6,23.5,206.4,23.9L206.4,23.9z" fill="#FFF"/></g><g id="change2_7"><path d="M211.5,324.4v4.8h0c0,1.1-0.8,2.1-1.9,2.3c-11.6,2.4-27.4,5.7-45.5,5.7c-17.9,0-33.8-3.3-45.4-5.7 c-1.1-0.2-1.9-1.2-1.9-2.3v-4.8c0-0.7,0.3-1.4,0.9-1.8c0.4-0.3,0.9-0.5,1.4-0.5l0.8,0.1c1.8,0.4,3.6,0.7,5.4,1 c1.8,0.3,3.6,0.7,5.4,1c1.1,0.2,2.3,0.3,3.4,0.4c2.5,0.4,5,0.7,7.6,1c1.6,0.2,3.2,0.2,4.8,0.4c2.1,0.2,4.2,0.4,6.3,0.5 c3.7,0.2,7.4,0.3,11.1,0.3h0.3c0.7,0,1.5,0,2.2-0.1c14.1-0.1,28.3-1.7,42.1-4.6l0.4,0l0.5-0.1c0.5,0,1,0.1,1.4,0.5 C211.2,323,211.5,323.7,211.5,324.4L211.5,324.4z" fill="#FFF"/></g><g id="change2_8"><path d="M121.9,317.9v-45.8h84.5v45.8c-1,0.2-2,0.4-3,0.6c-13,2.5-26.4,3.7-39.7,3.8c-3.6,0-7.1-0.1-10.7-0.3 c-1.2-0.1-2.3-0.2-3.5-0.3c-2.4-0.2-4.8-0.3-7.2-0.6c-1.5-0.2-2.9-0.4-4.3-0.6c-2.1-0.3-4.2-0.5-6.3-0.8c-1.6-0.2-3.2-0.6-4.7-0.9 C125.4,318.5,123.6,318.2,121.9,317.9L121.9,317.9z" fill="#FFF"/></g><g id="change2_9"><path d="M383.2,324.4v4.8h0c0,1.1-0.8,2-1.9,2.3c-11.6,2.4-27.5,5.7-45.5,5.7c-17.9,0-33.8-3.3-45.4-5.7 c-1.1-0.2-1.9-1.2-1.9-2.3v-4.8c0-0.7,0.3-1.4,0.9-1.8c0.4-0.3,0.9-0.5,1.4-0.5l0.8,0.1c14.4,3.1,29.1,4.6,43.8,4.7h0.3 c12.4,0,24.7-1.1,36.6-3.2c2.6-0.4,5.1-0.9,7.7-1.4l0.4,0h0.1c0.6-0.1,1.3,0,1.8,0.4C382.9,323,383.2,323.7,383.2,324.4L383.2,324.4 z" fill="#FFF"/></g><g id="change2_10"><path d="M378.1,317.8c-0.7,0.1-1.3,0.2-2,0.4c-13.3,2.6-27,3.8-40.6,4c-6.1,0-12.3-0.3-18.4-0.9 c-0.9-0.1-1.9-0.1-2.8-0.2c-2.3-0.2-4.7-0.6-7-0.9c-1.2-0.2-2.4-0.3-3.6-0.5c-2.2-0.3-4.4-0.8-6.6-1.2c-1.2-0.2-2.3-0.4-3.5-0.7 v-45.8h84.5L378.1,317.8L378.1,317.8z" fill="#FFF"/></g><g id="change2_11"><path d="M425.8,253.1c0,7.9-6.5,14.4-14.4,14.4H289l-92.8,0H88.6c-7.9,0-14.4-6.5-14.4-14.4v-35.4h0v-93.6h0V88.6 c0-3.8,1.5-7.5,4.2-10.2c2.7-2.7,6.3-4.2,10.2-4.2h28.7v0H211v0H289v0h93.6v0h28.7c7.9,0,14.4,6.5,14.4,14.4v129.1h0L425.8,253.1 L425.8,253.1z" fill="#FFF"/></g><g id="change2_12"><path d="M479.9,185.4c-0.2,2.4-0.3,4.8-0.6,7.2c-0.1,1.4-0.4,2.8-0.5,4.2c-0.3,2.2-0.5,4.3-0.9,6.5 c-0.2,1.5-0.5,3-0.8,4.5c-0.3,1.8-0.6,3.6-1,5.4h-45.8v-84.5h45.8c0.3,1.5,0.6,3,0.8,4.6c0.3,1.9,0.7,3.7,1,5.6 c0.3,1.8,0.5,3.5,0.7,5.3c0.2,1.8,0.5,3.7,0.7,5.5c0.2,1.8,0.3,3.6,0.4,5.4c0.1,1.8,0.3,3.7,0.4,5.5c0.2,3.4,0.3,6.9,0.3,10.3 c0,0.2,0,0.3,0,0.5c0,3.6-0.1,7.1-0.3,10.7C480.1,183.1,480,184.2,479.9,185.4L479.9,185.4z" fill="#FFF"/></g><g id="change2_13"><path d="M489.8,216.3L489.8,216.3c-0.2,1.1-1.2,1.9-2.3,1.9h-4.8c-0.7,0-1.4-0.3-1.8-0.9c-0.4-0.5-0.5-1.2-0.4-1.9 l0-0.3c0.5-2.2,0.8-4.4,1.2-6.6c0.3-1.4,0.6-2.8,0.8-4.2c0.2-1.5,0.4-3,0.6-4.4c0.3-2.2,0.6-4.4,0.9-6.5c0.2-1.7,0.3-3.4,0.4-5.1 c0.2-2,0.4-3.9,0.5-5.9c0.2-3.7,0.3-7.4,0.3-11c0-2-0.1-4-0.1-6c0-1.8,0-3.5-0.1-5.3c-0.1-1.2-0.2-2.4-0.3-3.6 c-0.2-2.5-0.3-5.1-0.6-7.6c-0.8-7.4-1.9-14.8-3.5-22l0-0.4l0-0.1c-0.1-0.6,0-1.3,0.4-1.8c0.4-0.6,1.1-0.9,1.8-0.9h4.8 c1.1,0,2.1,0.8,2.3,1.9c2.4,11.6,5.7,27.4,5.7,45.5C495.5,188.9,492.2,204.7,489.8,216.3L489.8,216.3z" fill="#FFF"/></g></svg>